<svg xmlns="http://www.w3.org/2000/svg" xmlns:xlink="http://www.w3.org/1999/xlink" width="23.47" height="19.688" viewBox="0 0 23.47 19.688">
  <metadata><?xpacket begin="﻿" id="W5M0MpCehiHzreSzNTczkc9d"?>
<x:xmpmeta xmlns:x="adobe:ns:meta/" x:xmptk="Adobe XMP Core 5.6-c142 79.160924, 2017/07/13-01:06:39        ">
   <rdf:RDF xmlns:rdf="http://www.w3.org/1999/02/22-rdf-syntax-ns#">
      <rdf:Description rdf:about=""/>
   </rdf:RDF>
</x:xmpmeta>
                                                                                                    
                                                                                                    
                                                                                                    
                                                                                                    
                                                                                                    
                                                                                                    
                                                                                                    
                                                                                                    
                                                                                                    
                                                                                                    
                                                                                                    
                                                                                                    
                                                                                                    
                                                                                                    
                                                                                                    
                                                                                                    
                                                                                                    
                                                                                                    
                                                                                                    
                                                                                                    
                           
<?xpacket end="w"?></metadata>
<defs>
    <style>
      .cls-1 {
        filter: url(#filter);
      }

      .cls-2 {
        fill: #6418c3;
        fill-rule: evenodd;
      }
    </style>
    <filter id="filter" filterUnits="userSpaceOnUse">
      <feFlood result="flood" flood-color="#006d3b"/>
      <feComposite result="composite" operator="in" in2="SourceGraphic"/>
      <feBlend result="blend" in2="SourceGraphic"/>
    </filter>
  </defs>
  <g id="camera_1" data-name="camera 1" class="cls-1">
    <g id="Layer_17" data-name="Layer 17">
      <path id="Vector" class="cls-2" d="M1616,738.7a3.133,3.133,0,0,0-1.75.533,3.147,3.147,0,0,0-1.35,3.242,3.094,3.094,0,0,0,.87,1.617,3.132,3.132,0,0,0,1.61.864,3.166,3.166,0,0,0,3.25-1.342,3.215,3.215,0,0,0,.53-1.755A3.174,3.174,0,0,0,1616,738.7h0Z" transform="translate(-1604.28 -730.156)"/>
      <path id="Vector-2" data-name="Vector" class="cls-2" d="M1624.67,733.84h-3.36l-1.64-2.33a2.974,2.974,0,0,0-2.52-1.355h-2.3a3.025,3.025,0,0,0-1.44.358,2.938,2.938,0,0,0-1.08,1l-1.58,2.33h-3.36a3.039,3.039,0,0,0-2.2.88,3.1,3.1,0,0,0-.67,1,3,3,0,0,0-.22,1.185v9.9a3.042,3.042,0,0,0,3.03,3.035h17.34a3.04,3.04,0,0,0,2.18-.872,3.053,3.053,0,0,0,.67-0.99,2.959,2.959,0,0,0,.24-1.173v-9.9a3.014,3.014,0,0,0-.23-1.185,2.946,2.946,0,0,0-.67-1,2.994,2.994,0,0,0-2.19-.88h0ZM1616,746.16a4.278,4.278,0,1,1,1.64-8.228,4.242,4.242,0,0,1,1.92,1.58,4.278,4.278,0,0,1-3.56,6.648h0Z" transform="translate(-1604.28 -730.156)"/>
    </g>
  </g>
</svg>
