<?xml version="1.0" encoding="UTF-8"?>
<svg width="752pt" height="752pt" version="1.1" viewBox="0 0 752 752" xmlns="http://www.w3.org/2000/svg">
 <path d="m513.21 437.17-49.203 57.996-31.441-25.02c-3.0586-2.4375-7.5391-1.9336-9.9766 1.1367-2.4453 3.0703-1.9336 7.5391 1.1367 9.9844l36.82 29.305c1.3008 1.0391 2.8633 1.543 4.418 1.543 2.0156 0 4.0195-0.85547 5.4219-2.5039l53.656-63.242c2.5391-2.9883 2.1719-7.4727-0.82031-10.012-2.9961-2.5547-7.4766-2.1758-10.012 0.8125zm-39.824-62.938c-54.676 0-99.16 44.484-99.16 99.16 0 54.672 44.484 99.152 99.16 99.152 54.676 0 99.156-44.484 99.156-99.16 0-54.668-44.48-99.152-99.156-99.152zm0 184.1c-46.844 0-84.949-38.105-84.949-84.945 0-46.844 38.109-84.949 84.949-84.949 46.844-0.003906 84.949 38.109 84.949 84.945 0 46.844-38.105 84.949-84.949 84.949zm-77.93-229.82h-159.83c-5.2266 0-9.4727 4.2422-9.4727 9.4727 0 5.2266 4.2422 9.4727 9.4727 9.4727h159.83c5.2266 0 9.4727-4.2422 9.4727-9.4727-0.003906-5.2305-4.2422-9.4727-9.4727-9.4727zm0 36.871h-159.83c-5.2266 0-9.4727 4.2422-9.4727 9.4727 0 5.2266 4.2422 9.4727 9.4727 9.4727h159.83c5.2266 0 9.4727-4.2422 9.4727-9.4727-0.003906-5.2266-4.2422-9.4727-9.4727-9.4727zm-35.234 135.61h-126.29c-20.891 0-37.887-16.996-37.887-37.887v-229.18c0-20.891 16.996-37.887 37.887-37.887h163.22c20.891 0 37.887 16.996 37.887 37.887v126.29c0 5.2266 4.2422 9.4727 9.4727 9.4727 5.2266 0 9.4727-4.2422 9.4727-9.4727v-126.29c0-31.336-25.492-56.828-56.828-56.828h-163.22c-31.336 0-56.828 25.492-56.828 56.828v229.18c0 31.336 25.492 56.828 56.828 56.828h126.29c5.2266 0 9.4727-4.2422 9.4727-9.4727 0-5.2227-4.2422-9.4688-9.4688-9.4688zm5.8125-98.734h-130.41c-5.2266 0-9.4727 4.2422-9.4727 9.4727 0 5.2266 4.2422 9.4727 9.4727 9.4727h130.41c5.2266 0 9.4727-4.2422 9.4727-9.4727s-4.2383-9.4727-9.4688-9.4727zm29.422-110.62h-159.83c-5.2266 0-9.4727 4.2422-9.4727 9.4727 0 5.2266 4.2422 9.4727 9.4727 9.4727h159.83c5.2266 0 9.4727-4.2422 9.4727-9.4727-0.003906-5.2266-4.2422-9.4727-9.4727-9.4727zm-42.402 166.44c5.2266 0 9.4727-4.2422 9.4727-9.4727 0-5.2266-4.2422-9.4727-9.4727-9.4727h-117.43c-5.2266 0-9.4727 4.2422-9.4727 9.4727 0 5.2266 4.2422 9.4727 9.4727 9.4727zm-12.828-202.84c5.2266 0 9.4727-4.2422 9.4727-9.4727 0-5.2266-4.2422-9.4727-9.4727-9.4727l-49.371 0.003906c-5.2266 0-9.4727 4.2422-9.4727 9.4727 0 5.2266 4.2422 9.4727 9.4727 9.4727z"/>
</svg>
