<svg id="save_1" data-name="save 1" xmlns="http://www.w3.org/2000/svg" width="24" height="24" viewBox="0 0 24 24">
  <metadata><?xpacket begin="﻿" id="W5M0MpCehiHzreSzNTczkc9d"?>
<x:xmpmeta xmlns:x="adobe:ns:meta/" x:xmptk="Adobe XMP Core 5.6-c142 79.160924, 2017/07/13-01:06:39        ">
   <rdf:RDF xmlns:rdf="http://www.w3.org/1999/02/22-rdf-syntax-ns#">
      <rdf:Description rdf:about=""/>
   </rdf:RDF>
</x:xmpmeta>
                                                                                                    
                                                                                                    
                                                                                                    
                                                                                                    
                                                                                                    
                                                                                                    
                                                                                                    
                                                                                                    
                                                                                                    
                                                                                                    
                                                                                                    
                                                                                                    
                                                                                                    
                                                                                                    
                                                                                                    
                                                                                                    
                                                                                                    
                                                                                                    
                                                                                                    
                                                                                                    
                           
<?xpacket end="w"?></metadata>
<defs>
    <style>
      .cls-1 {
        fill: #fff;
        fill-rule: evenodd;
      }
    </style>
  </defs>
  <g id="Group">
    <path id="Vector" class="cls-1" d="M485.1,1910.28h8.285a1.182,1.182,0,0,0,1.18-1.18V1902H483.924v7.1a1.181,1.181,0,0,0,1.179,1.18h0Zm6.452-4.56a0.7,0.7,0,1,1,1.406,0v2.25a0.7,0.7,0,1,1-1.406,0v-2.25Z" transform="translate(-478 -1902)"/>
    <path id="Vector-2" data-name="Vector" class="cls-1" d="M494.894,1916.21H485.1a1.181,1.181,0,0,0-1.179,1.18V1926h12.15v-8.61A1.182,1.182,0,0,0,494.894,1916.21Z" transform="translate(-478 -1902)"/>
    <path id="Vector-3" data-name="Vector" class="cls-1" d="M501.793,1906.72l-4.518-4.51a0.675,0.675,0,0,0-.5-0.21h-0.8v7.1a2.591,2.591,0,0,1-2.587,2.59H485.1a2.59,2.59,0,0,1-2.586-2.59V1902h-1.933a2.589,2.589,0,0,0-2.585,2.59v18.82a2.589,2.589,0,0,0,2.585,2.59h1.933v-8.61a2.59,2.59,0,0,1,2.586-2.59H494.9a2.59,2.59,0,0,1,2.586,2.59V1926h1.932a2.589,2.589,0,0,0,2.586-2.59v-16.19a0.713,0.713,0,0,0-.206-0.5h0Z" transform="translate(-478 -1902)"/>
  </g>
</svg>
